/vscmnt/brussel_pixiu_data/_data_brussel/112/vsc11236/PredSimResults/SUBJ09mtu3D/worker4.mot
version=1
nRows=6
nColumns=50
inDegrees=yes
endheader
                time	         pelvis_tilt	         pelvis_list	     pelvis_rotation	           pelvis_tx	           pelvis_ty	           pelvis_tz	       hip_flexion_r	     hip_adduction_r	      hip_rotation_r	        knee_angle_r	       ankle_angle_r	         mtp_angle_r	       hip_flexion_l	     hip_adduction_l	      hip_rotation_l	        knee_angle_l	       ankle_angle_l	         mtp_angle_l	    lumbar_extension	      lumbar_bending	     lumbar_rotation	 ercspn_r/activation	 intobl_r/activation	 extobl_r/activation	    abd_r/activation	    add_r/activation	hamstrings_r/activation	bifemsh_r/activation	glut_max_r/activation	iliopsoas_r/activation	rect_fem_r/activation	  vasti_r/activation	gastroc_r/activation	 soleus_r/activation	tib_ant_r/activation	 ercspn_l/activation	 intobl_l/activation	 extobl_l/activation	    abd_l/activation	    add_l/activation	hamstrings_l/activation	bifemsh_l/activation	glut_max_l/activation	iliopsoas_l/activation	rect_fem_l/activation	  vasti_l/activation	gastroc_l/activation	 soleus_l/activation	tib_ant_l/activation	
          1.25500269	         -4.35252228	         -1.20185269	          7.65904310	          1.55620334	          0.98892168	         -0.00079828	         28.58989923	         -1.22822267	         -8.23607958	         -5.47116037	          3.89621237	          0.24970260	        -14.43808175	         -2.91175540	         -4.21625106	         -9.49964532	          2.99020450	         37.74689979	        -14.05124127	         -1.21038956	         -5.42501248	          0.01484917	          0.16402055	          0.04760168	          0.00999999	          0.20051099	          0.04862939	          0.12820678	          0.07941945	          0.12609358	          0.01767903	          0.01003547	          0.01462080	          0.00999999	          0.29706042	          0.01367141	          0.01000000	          0.01000000	          0.02568867	          0.01209174	          0.02043310	          0.19299640	          0.01145035	          0.03725702	          0.01000000	          0.01000000	          0.32707239	          0.20836289	          0.01341309	
          1.26755272	         -4.37577525	         -1.31161073	          7.68562906	          1.57622205	          0.98665816	         -0.00021367	         28.54716245	         -1.08419301	         -8.30498038	         -7.36124311	          3.45705774	          0.20887510	        -15.10667625	         -3.22941726	         -4.62419019	        -10.21446253	          1.81260877	         39.33973216	        -13.57148594	         -0.74741142	         -5.52535357	          0.01228050	          0.13564755	          0.03936733	          0.07441364	          0.16582571	          0.05606698	          0.10602900	          0.10875500	          0.10428135	          0.01462083	          0.00999999	          0.01209175	          0.01209166	          0.33401080	          0.01132177	          0.00999999	          0.01000002	          0.02124493	          0.01000006	          0.01689853	          0.15961102	          0.00999999	          0.03391909	          0.01000000	          0.01000000	          0.29751004	          0.18648644	          0.01109283	
          1.28010275	         -4.38124021	         -1.42827694	          7.67919142	          1.59650170	          0.98475008	          0.00043739	         28.41840782	         -0.92624278	         -8.37123982	         -9.15670718	          2.91395519	          0.20182637	        -15.57919820	         -3.57164432	         -5.05388556	        -11.31393042	          0.50685453	         40.85221374	        -13.07711862	         -0.27394219	         -5.60013705	          0.01015618	          0.11218263	          0.03255740	          0.13131341	          0.18671375	          0.04768559	          0.08768763	          0.14777679	          0.08624229	          0.01209166	          0.00999999	          0.01000006	          0.00999999	          0.37720914	          0.02722192	          0.00999999	          0.00999999	          0.01756989	          0.01000000	          0.01397536	          0.13200080	          0.00999999	          0.05155608	          0.01000000	          0.01000000	          0.25438241	          0.15552441	          0.00999999	
          1.29265277	         -4.37076511	         -1.54086784	          7.64015432	          1.61669961	          0.98340315	          0.00116621	         28.34814829	         -0.76980459	         -8.44311009	        -11.07210516	          2.38363997	          0.16605540	        -15.74265293	         -3.93499077	         -5.49629162	        -12.96288680	         -0.88034832	         42.12004439	        -12.60843041	          0.19699186	         -5.64876966	          0.02152473	          0.09277678	          0.02692547	          0.18360407	          0.25563483	          0.04616392	          0.07251904	          0.16641895	          0.07132372	          0.01000000	          0.06636083	          0.01000000	          0.01000000	          0.39189066	          0.07449129	          0.00999999	          0.00999999	          0.01453057	          0.05546067	          0.01155789	          0.10916672	          0.00999999	          0.07258414	          0.01000000	          0.01000001	          0.21037820	          0.12862110	          0.00999999	
          1.30520280	         -4.34605040	         -1.64430710	          7.57224064	          1.63660201	          0.98275376	          0.00195366	         28.35044565	         -0.62261276	         -8.50356120	        -13.17519990	          2.20844005	          0.12580353	        -15.50708745	         -4.32124235	         -5.96780748	        -15.29210636	         -2.30030255	         42.91930957	        -12.18610773	          0.66050404	         -5.67209403	          0.01780134	          0.07672784	          0.02226778	          0.21086638	          0.29745008	          0.04409175	          0.05997437	          0.18447622	          0.05898582	          0.00999999	          0.16871087	          0.01000000	          0.01000000	          0.38972989	          0.08621843	          0.01000000	          0.00999999	          0.01201701	          0.13650398	          0.01362877	          0.09028257	          0.00999999	          0.10789177	          0.00999999	          0.00999999	          0.17398604	          0.10637165	          0.00999999	
          1.31775283	         -4.31020438	         -1.72628745	          7.47361607	          1.65606407	          0.98291666	          0.00276371	         28.32025037	         -0.48354212	         -8.54861395	        -15.25712463	          2.38803966	          0.09160058	        -14.80376167	         -4.72837601	         -6.51890040	        -18.41507468	         -3.62986059	         42.81483262	        -11.82374520	          1.10539157	         -5.66638730	          0.01483965	          0.06345511	          0.01841580	          0.21518571	          0.32771274	          0.04503690	          0.04959974	          0.18972248	          0.04878219	          0.00999999	          0.20023394	          0.01000000	          0.00999999	          0.35986959	          0.08704584	          0.01000000	          0.00999999	          0.00999999	          0.18391583	          0.01127122	          0.07466510	          0.00999999	          0.09623384	          0.00999999	          0.00999999	          0.14388916	          0.08797101	          0.00999999	
